<mxfile host="Electron" agent="Mozilla/5.0 (Macintosh; Intel Mac OS X 10_15_7) AppleWebKit/537.36 (KHTML, like Gecko) draw.io/24.7.17 Chrome/128.0.6613.36 Electron/32.0.1 Safari/537.36" version="24.7.17">
  <diagram name="Page-1" id="3-EXG4t6rAuNJhwRkwPT">
    <mxGraphModel dx="954" dy="674" grid="1" gridSize="10" guides="1" tooltips="1" connect="1" arrows="1" fold="1" page="1" pageScale="1" pageWidth="1600" pageHeight="900" math="0" shadow="0">
      <root>
        <mxCell id="0" />
        <mxCell id="1" parent="0" />
        <mxCell id="IejdhpI08ymJH26ZmKnB-10" value="" style="edgeStyle=orthogonalEdgeStyle;rounded=0;orthogonalLoop=1;jettySize=auto;html=1;" edge="1" parent="1" source="IejdhpI08ymJH26ZmKnB-1" target="IejdhpI08ymJH26ZmKnB-4">
          <mxGeometry relative="1" as="geometry" />
        </mxCell>
        <mxCell id="IejdhpI08ymJH26ZmKnB-16" style="edgeStyle=orthogonalEdgeStyle;rounded=0;orthogonalLoop=1;jettySize=auto;html=1;entryX=0;entryY=0.5;entryDx=0;entryDy=0;" edge="1" parent="1" source="IejdhpI08ymJH26ZmKnB-1" target="IejdhpI08ymJH26ZmKnB-3">
          <mxGeometry relative="1" as="geometry" />
        </mxCell>
        <mxCell id="IejdhpI08ymJH26ZmKnB-1" value="Meshgrid" style="rounded=0;whiteSpace=wrap;html=1;" vertex="1" parent="1">
          <mxGeometry x="10" y="10" width="120" height="60" as="geometry" />
        </mxCell>
        <mxCell id="IejdhpI08ymJH26ZmKnB-14" style="edgeStyle=orthogonalEdgeStyle;rounded=0;orthogonalLoop=1;jettySize=auto;html=1;entryX=0.5;entryY=0;entryDx=0;entryDy=0;" edge="1" parent="1" source="IejdhpI08ymJH26ZmKnB-2" target="IejdhpI08ymJH26ZmKnB-9">
          <mxGeometry relative="1" as="geometry" />
        </mxCell>
        <mxCell id="IejdhpI08ymJH26ZmKnB-15" style="edgeStyle=orthogonalEdgeStyle;rounded=0;orthogonalLoop=1;jettySize=auto;html=1;entryX=0.5;entryY=0;entryDx=0;entryDy=0;" edge="1" parent="1" source="IejdhpI08ymJH26ZmKnB-2" target="IejdhpI08ymJH26ZmKnB-8">
          <mxGeometry relative="1" as="geometry" />
        </mxCell>
        <mxCell id="IejdhpI08ymJH26ZmKnB-2" value="BoundingBox" style="rounded=0;whiteSpace=wrap;html=1;" vertex="1" parent="1">
          <mxGeometry x="610" y="10" width="120" height="60" as="geometry" />
        </mxCell>
        <mxCell id="IejdhpI08ymJH26ZmKnB-11" style="edgeStyle=orthogonalEdgeStyle;rounded=0;orthogonalLoop=1;jettySize=auto;html=1;entryX=0.5;entryY=0;entryDx=0;entryDy=0;" edge="1" parent="1" source="IejdhpI08ymJH26ZmKnB-3" target="IejdhpI08ymJH26ZmKnB-6">
          <mxGeometry relative="1" as="geometry" />
        </mxCell>
        <mxCell id="IejdhpI08ymJH26ZmKnB-12" style="edgeStyle=orthogonalEdgeStyle;rounded=0;orthogonalLoop=1;jettySize=auto;html=1;" edge="1" parent="1" source="IejdhpI08ymJH26ZmKnB-3" target="IejdhpI08ymJH26ZmKnB-5">
          <mxGeometry relative="1" as="geometry" />
        </mxCell>
        <mxCell id="IejdhpI08ymJH26ZmKnB-17" style="edgeStyle=orthogonalEdgeStyle;rounded=0;orthogonalLoop=1;jettySize=auto;html=1;entryX=0;entryY=0.5;entryDx=0;entryDy=0;" edge="1" parent="1" source="IejdhpI08ymJH26ZmKnB-3" target="IejdhpI08ymJH26ZmKnB-2">
          <mxGeometry relative="1" as="geometry" />
        </mxCell>
        <mxCell id="IejdhpI08ymJH26ZmKnB-3" value="Triangle" style="rounded=0;whiteSpace=wrap;html=1;" vertex="1" parent="1">
          <mxGeometry x="290" y="10" width="120" height="60" as="geometry" />
        </mxCell>
        <mxCell id="IejdhpI08ymJH26ZmKnB-4" value="_init_()" style="ellipse;whiteSpace=wrap;html=1;" vertex="1" parent="1">
          <mxGeometry x="10" y="120" width="120" height="80" as="geometry" />
        </mxCell>
        <mxCell id="IejdhpI08ymJH26ZmKnB-13" value="" style="edgeStyle=orthogonalEdgeStyle;rounded=0;orthogonalLoop=1;jettySize=auto;html=1;" edge="1" parent="1" source="IejdhpI08ymJH26ZmKnB-5" target="IejdhpI08ymJH26ZmKnB-7">
          <mxGeometry relative="1" as="geometry" />
        </mxCell>
        <mxCell id="IejdhpI08ymJH26ZmKnB-5" value="closest_distance_to()" style="ellipse;whiteSpace=wrap;html=1;" vertex="1" parent="1">
          <mxGeometry x="370" y="120" width="120" height="80" as="geometry" />
        </mxCell>
        <mxCell id="IejdhpI08ymJH26ZmKnB-6" value="box()" style="ellipse;whiteSpace=wrap;html=1;" vertex="1" parent="1">
          <mxGeometry x="210" y="120" width="120" height="80" as="geometry" />
        </mxCell>
        <mxCell id="IejdhpI08ymJH26ZmKnB-7" value="_project_on_seg()" style="ellipse;whiteSpace=wrap;html=1;" vertex="1" parent="1">
          <mxGeometry x="370" y="230" width="120" height="80" as="geometry" />
        </mxCell>
        <mxCell id="IejdhpI08ymJH26ZmKnB-8" value="enlarge()" style="ellipse;whiteSpace=wrap;html=1;" vertex="1" parent="1">
          <mxGeometry x="690" y="120" width="120" height="80" as="geometry" />
        </mxCell>
        <mxCell id="IejdhpI08ymJH26ZmKnB-9" value="contains()" style="ellipse;whiteSpace=wrap;html=1;" vertex="1" parent="1">
          <mxGeometry x="530" y="120" width="120" height="80" as="geometry" />
        </mxCell>
      </root>
    </mxGraphModel>
  </diagram>
</mxfile>
